<?xml version="1.0" standalone="no"?>
<!DOCTYPE svg PUBLIC "-//W3C//DTD SVG 20010904//EN"
 "http://www.w3.org/TR/2001/REC-SVG-20010904/DTD/svg10.dtd">
<svg version="1.0" xmlns="http://www.w3.org/2000/svg"
 width="300.000000pt" height="300.000000pt" viewBox="0 0 300.000000 300.000000"
 preserveAspectRatio="xMidYMid meet">
<metadata>
Created by potrace 1.10, written by Peter Selinger 2001-2011
</metadata>
<g transform="translate(0.000000,300.000000) scale(0.100000,-0.100000)"
fill="#000000" stroke="none">
<path d="M1410 2764 c-339 -39 -578 -151 -801 -373 -252 -250 -362 -524 -362
-896 0 -164 13 -246 64 -400 110 -331 371 -611 698 -749 178 -75 260 -90 496
-91 179 0 209 3 289 24 193 51 362 136 504 255 164 137 252 250 342 438 90
191 127 374 117 583 -18 342 -142 621 -380 852 -234 228 -499 340 -842 357
-49 2 -106 2 -125 0z m293 -69 c250 -44 444 -140 626 -312 258 -242 392 -577
378 -938 -16 -388 -221 -739 -562 -961 -402 -262 -966 -245 -1347 41 -165 124
-256 224 -348 382 -131 223 -188 521 -146 765 18 110 65 272 101 353 78 178
280 403 455 506 146 86 310 147 458 168 95 14 294 12 385 -4z"/>
<path d="M1324 2437 c-35 -31 -37 -77 -4 -112 23 -24 27 -25 171 -25 89 0 158
5 173 11 31 14 49 61 36 93 -18 49 -43 56 -202 56 -140 0 -148 -1 -174 -23z
m330 -39 c8 -13 8 -23 0 -35 -10 -16 -30 -18 -149 -21 -143 -3 -165 3 -165 39
0 32 30 39 169 36 115 -2 135 -4 145 -19z"/>
<path d="M2094 2269 c-61 -21 -222 -46 -363 -55 l-104 -7 6 31 7 32 -135 0
-135 0 0 -30 c0 -30 0 -30 -57 -30 -79 1 -182 14 -349 46 -141 28 -192 27
-163 0 30 -30 182 -67 355 -87 134 -17 552 -17 689 -1 103 12 239 37 269 48
11 4 9 -10 -5 -61 -20 -73 -48 -240 -74 -440 -23 -179 -61 -356 -96 -445 -94
-245 -288 -384 -484 -349 -167 29 -346 172 -492 394 l-46 70 24 190 c15 121
24 242 24 335 0 132 -2 150 -24 198 -42 94 -99 109 -161 43 -48 -51 -64 -111
-63 -236 2 -160 36 -304 110 -466 l35 -77 -32 -208 c-46 -304 -45 -294 -27
-294 28 0 60 123 90 345 l12 90 27 -46 c41 -70 180 -221 255 -278 78 -59 198
-109 281 -117 126 -13 261 37 360 135 129 127 201 308 248 625 3 21 7 36 9 35
4 -5 33 -405 43 -605 9 -170 14 -193 38 -173 30 25 16 362 -32 758 -29 242
-28 269 27 492 16 66 29 129 29 140 0 24 -25 23 -96 -2z m-496 -61 c3 -16 -6
-18 -87 -18 -49 0 -93 5 -96 10 -14 23 10 31 93 28 73 -3 87 -6 90 -20z m-719
-94 c33 -42 44 -124 36 -264 -7 -131 -31 -360 -39 -367 -6 -7 -64 149 -81 219
-22 90 -31 275 -16 334 14 54 46 104 66 104 7 0 23 -12 34 -26z"/>
</g>
</svg>
